<svg xmlns="http://www.w3.org/2000/svg" xmlns:xlink="http://www.w3.org/1999/xlink" contentStyleType="text/css" data-diagram-type="CLASS" height="398px" preserveAspectRatio="none" style="width:1169px;height:398px;background:#FFFFFF;" version="1.1" viewBox="0 0 1169 398" width="1169px" zoomAndPan="magnify"><defs/><g><!--class Constants--><g class="entity" data-entity="Constants" data-source-line="7" data-uid="ent0002" id="entity_Constants"><rect fill="#F1F1F1" height="65.6094" rx="2.5" ry="2.5" style="stroke:#181818;stroke-width:0.5;" width="213.5234" x="7" y="103.5"/><ellipse cx="77.9946" cy="119.5" fill="#ADD1B2" rx="11" ry="11" style="stroke:#181818;stroke-width:1;"/><path d="M80.7603,115.375 Q80.9165,115.1563 81.104,115.0469 Q81.2915,114.9375 81.5103,114.9375 Q81.8853,114.9375 82.1196,115.2031 Q82.354,115.4531 82.354,116.0625 L82.354,117.5156 Q82.354,118.125 82.1196,118.3906 Q81.8853,118.6563 81.5103,118.6563 Q81.1665,118.6563 80.9634,118.4531 Q80.7603,118.2656 80.6509,117.75 Q80.604,117.3906 80.4165,117.2031 Q80.0884,116.8281 79.479,116.6094 Q78.8696,116.3906 78.2446,116.3906 Q77.479,116.3906 76.8384,116.7188 Q76.2134,117.0469 75.7134,117.7969 Q75.229,118.5469 75.229,119.5781 L75.229,120.6719 Q75.229,121.9063 76.1196,122.7344 Q77.0103,123.5469 78.604,123.5469 Q79.5415,123.5469 80.1978,123.2969 Q80.5884,123.1406 81.0103,122.7031 Q81.2759,122.4375 81.4165,122.3594 Q81.5728,122.2813 81.7759,122.2813 Q82.104,122.2813 82.354,122.5469 Q82.6196,122.7969 82.6196,123.1406 Q82.6196,123.4844 82.2759,123.8906 Q81.7759,124.4688 80.979,124.7969 Q79.9009,125.25 78.604,125.25 Q77.0884,125.25 75.8853,124.625 Q74.9009,124.125 74.2134,123.0625 Q73.5259,121.9844 73.5259,120.7031 L73.5259,119.5469 Q73.5259,118.2188 74.1353,117.0781 Q74.7603,115.9219 75.854,115.3125 Q76.9478,114.6875 78.1821,114.6875 Q78.9165,114.6875 79.5571,114.8594 Q80.2134,115.0156 80.7603,115.375 Z " fill="#000000"/><text fill="#000000" font-family="sans-serif" font-size="14" lengthAdjust="spacing" textLength="63.0342" x="98.4946" y="125.2285">Constants</text><line style="stroke:#181818;stroke-width:0.5;" x1="8" x2="219.5234" y1="135.5" y2="135.5"/><ellipse cx="18" cy="149.8047" fill="none" rx="3" ry="3" style="stroke:#038048;stroke-width:1;"/><text fill="#000000" font-family="sans-serif" font-size="14" lengthAdjust="spacing" textLength="187.5234" x="27" y="154.0332">MinimumPasswordLength : int</text><line style="stroke:#181818;stroke-width:0.5;" x1="8" x2="219.5234" y1="161.1094" y2="161.1094"/></g><!--class Role--><g class="entity" data-entity="Role" data-source-line="10" data-uid="ent0003" id="entity_Role"><rect fill="#F1F1F1" height="83.2188" rx="2.5" ry="2.5" style="stroke:#181818;stroke-width:0.5;" width="141.9307" x="256" y="95"/><ellipse cx="308.3188" cy="111" fill="#ADD1B2" rx="11" ry="11" style="stroke:#181818;stroke-width:1;"/><path d="M311.0845,106.875 Q311.2407,106.6563 311.4282,106.5469 Q311.6157,106.4375 311.8345,106.4375 Q312.2095,106.4375 312.4438,106.7031 Q312.6782,106.9531 312.6782,107.5625 L312.6782,109.0156 Q312.6782,109.625 312.4438,109.8906 Q312.2095,110.1563 311.8345,110.1563 Q311.4907,110.1563 311.2876,109.9531 Q311.0845,109.7656 310.9751,109.25 Q310.9282,108.8906 310.7407,108.7031 Q310.4126,108.3281 309.8032,108.1094 Q309.1938,107.8906 308.5688,107.8906 Q307.8032,107.8906 307.1626,108.2188 Q306.5376,108.5469 306.0376,109.2969 Q305.5532,110.0469 305.5532,111.0781 L305.5532,112.1719 Q305.5532,113.4063 306.4438,114.2344 Q307.3345,115.0469 308.9282,115.0469 Q309.8657,115.0469 310.522,114.7969 Q310.9126,114.6406 311.3345,114.2031 Q311.6001,113.9375 311.7407,113.8594 Q311.897,113.7813 312.1001,113.7813 Q312.4282,113.7813 312.6782,114.0469 Q312.9438,114.2969 312.9438,114.6406 Q312.9438,114.9844 312.6001,115.3906 Q312.1001,115.9688 311.3032,116.2969 Q310.2251,116.75 308.9282,116.75 Q307.4126,116.75 306.2095,116.125 Q305.2251,115.625 304.5376,114.5625 Q303.8501,113.4844 303.8501,112.2031 L303.8501,111.0469 Q303.8501,109.7188 304.4595,108.5781 Q305.0845,107.4219 306.1782,106.8125 Q307.272,106.1875 308.5063,106.1875 Q309.2407,106.1875 309.8813,106.3594 Q310.5376,106.5156 311.0845,106.875 Z " fill="#000000"/><text fill="#000000" font-family="sans-serif" font-size="14" lengthAdjust="spacing" textLength="28.793" x="328.8188" y="116.7285">Role</text><line style="stroke:#181818;stroke-width:0.5;" x1="257" x2="396.9307" y1="127" y2="127"/><ellipse cx="267" cy="141.3047" fill="none" rx="3" ry="3" style="stroke:#038048;stroke-width:1;"/><text fill="#000000" font-family="sans-serif" font-size="14" lengthAdjust="spacing" textLength="83.248" x="276" y="145.5332">Name : string</text><ellipse cx="267" cy="158.9141" fill="none" rx="3" ry="3" style="stroke:#038048;stroke-width:1;"/><text fill="#000000" font-family="sans-serif" font-size="14" lengthAdjust="spacing" textLength="115.9307" x="276" y="163.1426">Description : string</text><line style="stroke:#181818;stroke-width:0.5;" x1="257" x2="396.9307" y1="170.2188" y2="170.2188"/></g><!--class User--><g class="entity" data-entity="User" data-source-line="14" data-uid="ent0004" id="entity_User"><rect fill="#F1F1F1" height="259.3125" rx="2.5" ry="2.5" style="stroke:#181818;stroke-width:0.5;" width="231.4199" x="433.5" y="7"/><ellipse cx="530.1807" cy="23" fill="#ADD1B2" rx="11" ry="11" style="stroke:#181818;stroke-width:1;"/><path d="M532.9463,18.875 Q533.1025,18.6563 533.29,18.5469 Q533.4775,18.4375 533.6963,18.4375 Q534.0713,18.4375 534.3057,18.7031 Q534.54,18.9531 534.54,19.5625 L534.54,21.0156 Q534.54,21.625 534.3057,21.8906 Q534.0713,22.1563 533.6963,22.1563 Q533.3525,22.1563 533.1494,21.9531 Q532.9463,21.7656 532.8369,21.25 Q532.79,20.8906 532.6025,20.7031 Q532.2744,20.3281 531.665,20.1094 Q531.0557,19.8906 530.4307,19.8906 Q529.665,19.8906 529.0244,20.2188 Q528.3994,20.5469 527.8994,21.2969 Q527.415,22.0469 527.415,23.0781 L527.415,24.1719 Q527.415,25.4063 528.3057,26.2344 Q529.1963,27.0469 530.79,27.0469 Q531.7275,27.0469 532.3838,26.7969 Q532.7744,26.6406 533.1963,26.2031 Q533.4619,25.9375 533.6025,25.8594 Q533.7588,25.7813 533.9619,25.7813 Q534.29,25.7813 534.54,26.0469 Q534.8057,26.2969 534.8057,26.6406 Q534.8057,26.9844 534.4619,27.3906 Q533.9619,27.9688 533.165,28.2969 Q532.0869,28.75 530.79,28.75 Q529.2744,28.75 528.0713,28.125 Q527.0869,27.625 526.3994,26.5625 Q525.7119,25.4844 525.7119,24.2031 L525.7119,23.0469 Q525.7119,21.7188 526.3213,20.5781 Q526.9463,19.4219 528.04,18.8125 Q529.1338,18.1875 530.3682,18.1875 Q531.1025,18.1875 531.7432,18.3594 Q532.3994,18.5156 532.9463,18.875 Z " fill="#000000"/><text fill="#000000" font-family="sans-serif" font-size="14" lengthAdjust="spacing" textLength="29.5586" x="550.6807" y="28.7285">User</text><line style="stroke:#181818;stroke-width:0.5;" x1="434.5" x2="663.9199" y1="39" y2="39"/><ellipse cx="444.5" cy="53.3047" fill="none" rx="3" ry="3" style="stroke:#038048;stroke-width:1;"/><text fill="#000000" font-family="sans-serif" font-size="14" lengthAdjust="spacing" textLength="83.248" x="453.5" y="57.5332">Name : string</text><ellipse cx="444.5" cy="70.9141" fill="none" rx="3" ry="3" style="stroke:#038048;stroke-width:1;"/><text fill="#000000" font-family="sans-serif" font-size="14" lengthAdjust="spacing" textLength="80.9102" x="453.5" y="75.1426">Email : string</text><ellipse cx="444.5" cy="88.5234" fill="none" rx="3" ry="3" style="stroke:#038048;stroke-width:1;"/><text fill="#000000" font-family="sans-serif" font-size="14" lengthAdjust="spacing" textLength="99.5996" x="453.5" y="92.752">Password : byte</text><ellipse cx="444.5" cy="106.1328" fill="none" rx="3" ry="3" style="stroke:#038048;stroke-width:1;"/><text fill="#000000" font-family="sans-serif" font-size="14" lengthAdjust="spacing" textLength="62.2549" x="453.5" y="110.3613">Salt : byte</text><ellipse cx="444.5" cy="123.7422" fill="none" rx="3" ry="3" style="stroke:#038048;stroke-width:1;"/><text fill="#000000" font-family="sans-serif" font-size="14" lengthAdjust="spacing" textLength="66.9238" x="453.5" y="127.9707">RoleId : int</text><ellipse cx="444.5" cy="141.3516" fill="none" rx="3" ry="3" style="stroke:#038048;stroke-width:1;"/><text fill="#000000" font-family="sans-serif" font-size="14" lengthAdjust="spacing" textLength="135.3857" x="453.5" y="145.5801">CreatedAt : DateTime</text><ellipse cx="444.5" cy="158.9609" fill="none" rx="3" ry="3" style="stroke:#038048;stroke-width:1;"/><text fill="#000000" font-family="sans-serif" font-size="14" lengthAdjust="spacing" textLength="76.2617" x="453.5" y="163.1895">Active : bool</text><line style="stroke:#181818;stroke-width:0.5;" x1="434.5" x2="663.9199" y1="170.2656" y2="170.2656"/><ellipse cx="444.5" cy="184.5703" fill="#84BE84" rx="3" ry="3" style="stroke:#038048;stroke-width:1;"/><text fill="#000000" font-family="sans-serif" font-size="14" lengthAdjust="spacing" textLength="189.0752" x="453.5" y="188.7988">CanActivate() : ProcessOutput</text><ellipse cx="444.5" cy="202.1797" fill="#84BE84" rx="3" ry="3" style="stroke:#038048;stroke-width:1;"/><text fill="#000000" font-family="sans-serif" font-size="14" lengthAdjust="spacing" textLength="205.4199" x="453.5" y="206.4082">CanDeactivate() : ProcessOutput</text><ellipse cx="444.5" cy="219.7891" fill="#84BE84" rx="3" ry="3" style="stroke:#038048;stroke-width:1;"/><text fill="#000000" font-family="sans-serif" font-size="14" lengthAdjust="spacing" textLength="179.7441" x="453.5" y="224.0176">CanDelete() : ProcessOutput</text><ellipse cx="444.5" cy="237.3984" fill="#84BE84" rx="3" ry="3" style="stroke:#038048;stroke-width:1;"/><text fill="#000000" font-family="sans-serif" font-size="14" lengthAdjust="spacing" textLength="195.2959" x="453.5" y="241.627">CanRegister(,) : ProcessOutput</text><ellipse cx="444.5" cy="255.0078" fill="#84BE84" rx="3" ry="3" style="stroke:#038048;stroke-width:1;"/><text fill="#000000" font-family="sans-serif" font-size="14" lengthAdjust="spacing" textLength="184.4199" x="453.5" y="259.2363">CanUpdate() : ProcessOutput</text></g><!--class Roles--><g class="entity" data-entity="Roles" data-source-line="28" data-uid="ent0005" id="entity_Roles"><rect fill="#F1F1F1" height="100.8281" rx="2.5" ry="2.5" style="stroke:#181818;stroke-width:0.5;" width="101.4824" x="699.5" y="86"/><ellipse cx="729.6603" cy="102" fill="#ADD1B2" rx="11" ry="11" style="stroke:#181818;stroke-width:1;"/><path d="M732.4259,97.875 Q732.5821,97.6563 732.7696,97.5469 Q732.9571,97.4375 733.1759,97.4375 Q733.5509,97.4375 733.7853,97.7031 Q734.0196,97.9531 734.0196,98.5625 L734.0196,100.0156 Q734.0196,100.625 733.7853,100.8906 Q733.5509,101.1563 733.1759,101.1563 Q732.8321,101.1563 732.629,100.9531 Q732.4259,100.7656 732.3165,100.25 Q732.2696,99.8906 732.0821,99.7031 Q731.754,99.3281 731.1446,99.1094 Q730.5353,98.8906 729.9103,98.8906 Q729.1446,98.8906 728.504,99.2188 Q727.879,99.5469 727.379,100.2969 Q726.8946,101.0469 726.8946,102.0781 L726.8946,103.1719 Q726.8946,104.4063 727.7853,105.2344 Q728.6759,106.0469 730.2696,106.0469 Q731.2071,106.0469 731.8634,105.7969 Q732.254,105.6406 732.6759,105.2031 Q732.9415,104.9375 733.0821,104.8594 Q733.2384,104.7813 733.4415,104.7813 Q733.7696,104.7813 734.0196,105.0469 Q734.2853,105.2969 734.2853,105.6406 Q734.2853,105.9844 733.9415,106.3906 Q733.4415,106.9688 732.6446,107.2969 Q731.5665,107.75 730.2696,107.75 Q728.754,107.75 727.5509,107.125 Q726.5665,106.625 725.879,105.5625 Q725.1915,104.4844 725.1915,103.2031 L725.1915,102.0469 Q725.1915,100.7188 725.8009,99.5781 Q726.4259,98.4219 727.5196,97.8125 Q728.6134,97.1875 729.8478,97.1875 Q730.5821,97.1875 731.2228,97.3594 Q731.879,97.5156 732.4259,97.875 Z " fill="#000000"/><text fill="#000000" font-family="sans-serif" font-size="14" lengthAdjust="spacing" textLength="35.793" x="747.0292" y="107.7285">Roles</text><line style="stroke:#181818;stroke-width:0.5;" x1="700.5" x2="799.9824" y1="118" y2="118"/><rect fill="none" height="6" style="stroke:#C82930;stroke-width:1;" width="6" x="707.5" y="129.3047"/><text fill="#000000" font-family="sans-serif" font-size="14" lengthAdjust="spacing" textLength="66.1377" x="719.5" y="136.5332">Admin : int</text><rect fill="none" height="6" style="stroke:#C82930;stroke-width:1;" width="6" x="707.5" y="146.9141"/><text fill="#000000" font-family="sans-serif" font-size="14" lengthAdjust="spacing" textLength="75.4824" x="719.5" y="154.1426">Regular : int</text><rect fill="none" height="6" style="stroke:#C82930;stroke-width:1;" width="6" x="707.5" y="164.5234"/><text fill="#000000" font-family="sans-serif" font-size="14" lengthAdjust="spacing" textLength="53.6826" x="719.5" y="171.752">Test : int</text><line style="stroke:#181818;stroke-width:0.5;" x1="700.5" x2="799.9824" y1="178.8281" y2="178.8281"/></g><!--class UserFilter--><g class="entity" data-entity="UserFilter" data-source-line="33" data-uid="ent0006" id="entity_UserFilter"><rect fill="#F1F1F1" height="136.0469" rx="2.5" ry="2.5" style="stroke:#181818;stroke-width:0.5;" width="169.1719" x="835.5" y="68.5"/><ellipse cx="885.5015" cy="84.5" fill="#ADD1B2" rx="11" ry="11" style="stroke:#181818;stroke-width:1;"/><path d="M888.2671,80.375 Q888.4233,80.1563 888.6108,80.0469 Q888.7983,79.9375 889.0171,79.9375 Q889.3921,79.9375 889.6265,80.2031 Q889.8608,80.4531 889.8608,81.0625 L889.8608,82.5156 Q889.8608,83.125 889.6265,83.3906 Q889.3921,83.6563 889.0171,83.6563 Q888.6733,83.6563 888.4702,83.4531 Q888.2671,83.2656 888.1577,82.75 Q888.1108,82.3906 887.9233,82.2031 Q887.5952,81.8281 886.9858,81.6094 Q886.3765,81.3906 885.7515,81.3906 Q884.9858,81.3906 884.3452,81.7188 Q883.7202,82.0469 883.2202,82.7969 Q882.7358,83.5469 882.7358,84.5781 L882.7358,85.6719 Q882.7358,86.9063 883.6265,87.7344 Q884.5171,88.5469 886.1108,88.5469 Q887.0483,88.5469 887.7046,88.2969 Q888.0952,88.1406 888.5171,87.7031 Q888.7827,87.4375 888.9233,87.3594 Q889.0796,87.2813 889.2827,87.2813 Q889.6108,87.2813 889.8608,87.5469 Q890.1265,87.7969 890.1265,88.1406 Q890.1265,88.4844 889.7827,88.8906 Q889.2827,89.4688 888.4858,89.7969 Q887.4077,90.25 886.1108,90.25 Q884.5952,90.25 883.3921,89.625 Q882.4077,89.125 881.7202,88.0625 Q881.0327,86.9844 881.0327,85.7031 L881.0327,84.5469 Q881.0327,83.2188 881.6421,82.0781 Q882.2671,80.9219 883.3608,80.3125 Q884.4546,79.6875 885.689,79.6875 Q886.4233,79.6875 887.064,79.8594 Q887.7202,80.0156 888.2671,80.375 Z " fill="#000000"/><text fill="#000000" font-family="sans-serif" font-size="14" lengthAdjust="spacing" textLength="60.6689" x="906.0015" y="90.2285">UserFilter</text><line style="stroke:#181818;stroke-width:0.5;" x1="836.5" x2="1003.6719" y1="100.5" y2="100.5"/><ellipse cx="846.5" cy="114.8047" fill="none" rx="3" ry="3" style="stroke:#038048;stroke-width:1;"/><text fill="#000000" font-family="sans-serif" font-size="14" lengthAdjust="spacing" textLength="91.0342" x="855.5" y="119.0332">Name : string?</text><ellipse cx="846.5" cy="132.4141" fill="none" rx="3" ry="3" style="stroke:#038048;stroke-width:1;"/><text fill="#000000" font-family="sans-serif" font-size="14" lengthAdjust="spacing" textLength="88.6963" x="855.5" y="136.6426">Email : string?</text><ellipse cx="846.5" cy="150.0234" fill="none" rx="3" ry="3" style="stroke:#038048;stroke-width:1;"/><text fill="#000000" font-family="sans-serif" font-size="14" lengthAdjust="spacing" textLength="74.71" x="855.5" y="154.252">RoleId : int?</text><ellipse cx="846.5" cy="167.6328" fill="none" rx="3" ry="3" style="stroke:#038048;stroke-width:1;"/><text fill="#000000" font-family="sans-serif" font-size="14" lengthAdjust="spacing" textLength="143.1719" x="855.5" y="171.8613">CreatedAt : DateTime?</text><ellipse cx="846.5" cy="185.2422" fill="none" rx="3" ry="3" style="stroke:#038048;stroke-width:1;"/><text fill="#000000" font-family="sans-serif" font-size="14" lengthAdjust="spacing" textLength="84.0479" x="855.5" y="189.4707">Active : bool?</text><line style="stroke:#181818;stroke-width:0.5;" x1="836.5" x2="1003.6719" y1="196.5469" y2="196.5469"/></g><!--class UserMultiFilter--><g class="entity" data-entity="UserMultiFilter" data-source-line="40" data-uid="ent0007" id="entity_UserMultiFilter"><rect fill="#F1F1F1" height="136.0469" rx="2.5" ry="2.5" style="stroke:#181818;stroke-width:0.5;" width="123.2686" x="1039.5" y="68.5"/><ellipse cx="1054.9685" cy="84.5" fill="#ADD1B2" rx="11" ry="11" style="stroke:#181818;stroke-width:1;"/><path d="M1057.7341,80.375 Q1057.8903,80.1563 1058.0778,80.0469 Q1058.2653,79.9375 1058.4841,79.9375 Q1058.8591,79.9375 1059.0935,80.2031 Q1059.3278,80.4531 1059.3278,81.0625 L1059.3278,82.5156 Q1059.3278,83.125 1059.0935,83.3906 Q1058.8591,83.6563 1058.4841,83.6563 Q1058.1403,83.6563 1057.9372,83.4531 Q1057.7341,83.2656 1057.6247,82.75 Q1057.5778,82.3906 1057.3903,82.2031 Q1057.0622,81.8281 1056.4528,81.6094 Q1055.8435,81.3906 1055.2185,81.3906 Q1054.4528,81.3906 1053.8122,81.7188 Q1053.1872,82.0469 1052.6872,82.7969 Q1052.2028,83.5469 1052.2028,84.5781 L1052.2028,85.6719 Q1052.2028,86.9063 1053.0935,87.7344 Q1053.9841,88.5469 1055.5778,88.5469 Q1056.5153,88.5469 1057.1716,88.2969 Q1057.5622,88.1406 1057.9841,87.7031 Q1058.2497,87.4375 1058.3903,87.3594 Q1058.5466,87.2813 1058.7497,87.2813 Q1059.0778,87.2813 1059.3278,87.5469 Q1059.5935,87.7969 1059.5935,88.1406 Q1059.5935,88.4844 1059.2497,88.8906 Q1058.7497,89.4688 1057.9528,89.7969 Q1056.8747,90.25 1055.5778,90.25 Q1054.0622,90.25 1052.8591,89.625 Q1051.8747,89.125 1051.1872,88.0625 Q1050.4997,86.9844 1050.4997,85.7031 L1050.4997,84.5469 Q1050.4997,83.2188 1051.1091,82.0781 Q1051.7341,80.9219 1052.8278,80.3125 Q1053.9216,79.6875 1055.156,79.6875 Q1055.8903,79.6875 1056.531,79.8594 Q1057.1872,80.0156 1057.7341,80.375 Z " fill="#000000"/><text fill="#000000" font-family="sans-serif" font-size="14" lengthAdjust="spacing" textLength="90.2275" x="1069.0726" y="90.2285">UserMultiFilter</text><line style="stroke:#181818;stroke-width:0.5;" x1="1040.5" x2="1161.7686" y1="100.5" y2="100.5"/><ellipse cx="1050.5" cy="114.8047" fill="none" rx="3" ry="3" style="stroke:#038048;stroke-width:1;"/><text fill="#000000" font-family="sans-serif" font-size="14" lengthAdjust="spacing" textLength="26.4551" x="1059.5" y="119.0332">Ids :</text><ellipse cx="1050.5" cy="132.4141" fill="none" rx="3" ry="3" style="stroke:#038048;stroke-width:1;"/><text fill="#000000" font-family="sans-serif" font-size="14" lengthAdjust="spacing" textLength="52.124" x="1059.5" y="136.6426">Names :</text><ellipse cx="1050.5" cy="150.0234" fill="none" rx="3" ry="3" style="stroke:#038048;stroke-width:1;"/><text fill="#000000" font-family="sans-serif" font-size="14" lengthAdjust="spacing" textLength="49.7861" x="1059.5" y="154.252">Emails :</text><ellipse cx="1050.5" cy="167.6328" fill="none" rx="3" ry="3" style="stroke:#038048;stroke-width:1;"/><text fill="#000000" font-family="sans-serif" font-size="14" lengthAdjust="spacing" textLength="55.248" x="1059.5" y="171.8613">RoleIds :</text><ellipse cx="1050.5" cy="185.2422" fill="none" rx="3" ry="3" style="stroke:#038048;stroke-width:1;"/><text fill="#000000" font-family="sans-serif" font-size="14" lengthAdjust="spacing" textLength="97.2686" x="1059.5" y="189.4707">CreationDates :</text><line style="stroke:#181818;stroke-width:0.5;" x1="1040.5" x2="1161.7686" y1="196.5469" y2="196.5469"/></g><!--class Entity--><g class="entity" data-entity="Entity" data-source-line="47" data-uid="ent0008" id="entity_Entity"><rect fill="#F1F1F1" height="65.6094" rx="2.5" ry="2.5" style="stroke:#181818;stroke-width:0.5;" width="67.0137" x="404.5" y="326"/><ellipse cx="419.5" cy="342" fill="#ADD1B2" rx="11" ry="11" style="stroke:#181818;stroke-width:1;"/><path d="M422.2656,337.875 Q422.4219,337.6563 422.6094,337.5469 Q422.7969,337.4375 423.0156,337.4375 Q423.3906,337.4375 423.625,337.7031 Q423.8594,337.9531 423.8594,338.5625 L423.8594,340.0156 Q423.8594,340.625 423.625,340.8906 Q423.3906,341.1563 423.0156,341.1563 Q422.6719,341.1563 422.4688,340.9531 Q422.2656,340.7656 422.1563,340.25 Q422.1094,339.8906 421.9219,339.7031 Q421.5938,339.3281 420.9844,339.1094 Q420.375,338.8906 419.75,338.8906 Q418.9844,338.8906 418.3438,339.2188 Q417.7188,339.5469 417.2188,340.2969 Q416.7344,341.0469 416.7344,342.0781 L416.7344,343.1719 Q416.7344,344.4063 417.625,345.2344 Q418.5156,346.0469 420.1094,346.0469 Q421.0469,346.0469 421.7031,345.7969 Q422.0938,345.6406 422.5156,345.2031 Q422.7813,344.9375 422.9219,344.8594 Q423.0781,344.7813 423.2813,344.7813 Q423.6094,344.7813 423.8594,345.0469 Q424.125,345.2969 424.125,345.6406 Q424.125,345.9844 423.7813,346.3906 Q423.2813,346.9688 422.4844,347.2969 Q421.4063,347.75 420.1094,347.75 Q418.5938,347.75 417.3906,347.125 Q416.4063,346.625 415.7188,345.5625 Q415.0313,344.4844 415.0313,343.2031 L415.0313,342.0469 Q415.0313,340.7188 415.6406,339.5781 Q416.2656,338.4219 417.3594,337.8125 Q418.4531,337.1875 419.6875,337.1875 Q420.4219,337.1875 421.0625,337.3594 Q421.7188,337.5156 422.2656,337.875 Z " fill="#000000"/><text fill="#000000" font-family="sans-serif" font-size="14" lengthAdjust="spacing" textLength="35.0137" x="433.5" y="347.7285">Entity</text><line style="stroke:#181818;stroke-width:0.5;" x1="405.5" x2="470.5137" y1="358" y2="358"/><ellipse cx="415.5" cy="372.3047" fill="none" rx="3" ry="3" style="stroke:#038048;stroke-width:1;"/><text fill="#000000" font-family="sans-serif" font-size="14" lengthAdjust="spacing" textLength="38.1309" x="424.5" y="376.5332">Id : int</text><line style="stroke:#181818;stroke-width:0.5;" x1="405.5" x2="470.5137" y1="383.6094" y2="383.6094"/></g><!--class DataFilter--><g class="entity" data-entity="DataFilter" data-source-line="50" data-uid="ent0009" id="entity_DataFilter"><rect fill="#F1F1F1" height="48" rx="2.5" ry="2.5" style="stroke:#181818;stroke-width:0.5;" width="92.6826" x="963.5" y="335"/><ellipse cx="978.5" cy="351" fill="#ADD1B2" rx="11" ry="11" style="stroke:#181818;stroke-width:1;"/><path d="M981.2656,346.875 Q981.4219,346.6563 981.6094,346.5469 Q981.7969,346.4375 982.0156,346.4375 Q982.3906,346.4375 982.625,346.7031 Q982.8594,346.9531 982.8594,347.5625 L982.8594,349.0156 Q982.8594,349.625 982.625,349.8906 Q982.3906,350.1563 982.0156,350.1563 Q981.6719,350.1563 981.4688,349.9531 Q981.2656,349.7656 981.1563,349.25 Q981.1094,348.8906 980.9219,348.7031 Q980.5938,348.3281 979.9844,348.1094 Q979.375,347.8906 978.75,347.8906 Q977.9844,347.8906 977.3438,348.2188 Q976.7188,348.5469 976.2188,349.2969 Q975.7344,350.0469 975.7344,351.0781 L975.7344,352.1719 Q975.7344,353.4063 976.625,354.2344 Q977.5156,355.0469 979.1094,355.0469 Q980.0469,355.0469 980.7031,354.7969 Q981.0938,354.6406 981.5156,354.2031 Q981.7813,353.9375 981.9219,353.8594 Q982.0781,353.7813 982.2813,353.7813 Q982.6094,353.7813 982.8594,354.0469 Q983.125,354.2969 983.125,354.6406 Q983.125,354.9844 982.7813,355.3906 Q982.2813,355.9688 981.4844,356.2969 Q980.4063,356.75 979.1094,356.75 Q977.5938,356.75 976.3906,356.125 Q975.4063,355.625 974.7188,354.5625 Q974.0313,353.4844 974.0313,352.2031 L974.0313,351.0469 Q974.0313,349.7188 974.6406,348.5781 Q975.2656,347.4219 976.3594,346.8125 Q977.4531,346.1875 978.6875,346.1875 Q979.4219,346.1875 980.0625,346.3594 Q980.7188,346.5156 981.2656,346.875 Z " fill="#000000"/><text fill="#000000" font-family="sans-serif" font-size="14" lengthAdjust="spacing" textLength="60.6826" x="992.5" y="356.7285">DataFilter</text><line style="stroke:#181818;stroke-width:0.5;" x1="964.5" x2="1055.1826" y1="367" y2="367"/><line style="stroke:#181818;stroke-width:0.5;" x1="964.5" x2="1055.1826" y1="375" y2="375"/></g><!--link Role to Entity--><g class="link" data-entity-1="Role" data-entity-2="Entity" data-source-line="51" data-uid="lnk10" id="link_Role_Entity"><path codeLine="51" d="M347.49,178.2 C368.91,220.76 394.0058,270.6026 413.6858,309.6926" fill="none" id="Role-to-Entity" style="stroke:#181818;stroke-width:1;"/><polygon fill="none" points="421.78,325.77,419.0449,306.9945,408.3266,312.3907,421.78,325.77" style="stroke:#181818;stroke-width:1;"/></g><!--link User to Entity--><g class="link" data-entity-1="User" data-entity-2="Entity" data-source-line="52" data-uid="lnk11" id="link_User_Entity"><path codeLine="52" d="M484.27,266.08 C473.14,288.2 470.613,293.2219 462.363,309.6119" fill="none" id="User-to-Entity" style="stroke:#181818;stroke-width:1;"/><polygon fill="none" points="454.27,325.69,467.7223,312.3096,457.0036,306.9143,454.27,325.69" style="stroke:#181818;stroke-width:1;"/></g><!--link UserFilter to DataFilter--><g class="link" data-entity-1="UserFilter" data-entity-2="DataFilter" data-source-line="53" data-uid="lnk12" id="link_UserFilter_DataFilter"><path codeLine="53" d="M947.37,204.56 C965.47,248.9 981.2888,287.6544 993.7888,318.2844" fill="none" id="UserFilter-to-DataFilter" style="stroke:#181818;stroke-width:1;"/><polygon fill="none" points="1000.59,334.95,999.344,316.0173,988.2336,320.5514,1000.59,334.95" style="stroke:#181818;stroke-width:1;"/></g><!--link UserMultiFilter to DataFilter--><g class="link" data-entity-1="UserMultiFilter" data-entity-2="DataFilter" data-source-line="54" data-uid="lnk13" id="link_UserMultiFilter_DataFilter"><path codeLine="54" d="M1073.33,204.56 C1055.02,248.9 1039.0163,287.6811 1026.3763,318.3111" fill="none" id="UserMultiFilter-to-DataFilter" style="stroke:#181818;stroke-width:1;"/><polygon fill="none" points="1019.51,334.95,1031.9226,320.5999,1020.83,316.0223,1019.51,334.95" style="stroke:#181818;stroke-width:1;"/></g><!--SRC=[XLBRJiCm37tlL_Hn2Fe3F51Lwv0cCPZ6zW5POnLBkLI92vg0VoT96zQr7Rp5nyS-zd4gmQnDbrfPOehiPvAcjnjKA5kvTPaFRVWJg9hUqliK5INVIHKgTbf083yp2IvdoQ2gFL22hGmsX5gTyLXsi63corQIeRX0ehu3ZoS23xqoGOFG3x7c_MGkNXfW1BpmdDAzzYW3hwW8txtSKMiHY4m5p74MDmxV6bs1jIyjDItrX1BO_nG1VwHtKACbC8kxQun3m-Vx3sqEHyaABb7zhfgvtgrWvWpimTBeHjxiHnGqPta-zJmVMvfVypIVc9fVY6vQGJXGNdFhU766-0xgCUXqOnH4tGVoWW6BtLUAa4vzqz6wZimwqSHtIxFiww4lIFnK4w0ZT_2WUBJ1EFy3]--></g></svg>